HIERARCHY
ROOT Pelvis
{
	OFFSET 0.000000 0.000000 0.000000
	CHANNELS 6 Xposition Yposition Zposition Xrotation Yrotation Zrotation
	JOINT LeftUpLeg_virtual
	{
		OFFSET 0.000000 0.000000 0.000000
		CHANNELS 3 Xrotation Yrotation Zrotation
		JOINT LeftUpLeg
		{
			OFFSET 18.735201 -5.666702 -4.541200
			CHANNELS 3 Xrotation Yrotation Zrotation
			JOINT LeftLeg
			{
				OFFSET -0.021200 -31.938179 0.493100
				CHANNELS 3 Xrotation Yrotation Zrotation
				JOINT LeftFoot
				{
					OFFSET 0.021200 -31.938179 -4.336299
					CHANNELS 3 Xrotation Yrotation Zrotation
					JOINT LeftToeBase
					{
						OFFSET 0.943001 -26.722000 15.023500
						CHANNELS 3 Xrotation Yrotation Zrotation
						End Site
						{
							OFFSET 0 0 0
						}
					}
				}
			}
		}
	}
	JOINT RightUpLeg_virtual
	{
		OFFSET 0.000000 0.000000 0.000000
		CHANNELS 3 Xrotation Yrotation Zrotation
		JOINT RightUpLeg
		{
			OFFSET -18.735201 -5.666702 -4.541200
			CHANNELS 3 Xrotation Yrotation Zrotation
			JOINT RightLeg
			{
				OFFSET 0.018946 -31.938133 0.493100
				CHANNELS 3 Xrotation Yrotation Zrotation
				JOINT RightFoot
				{
					OFFSET -0.018946 -31.938126 -4.336299
					CHANNELS 3 Xrotation Yrotation Zrotation
					JOINT RightToeBase
					{
						OFFSET -0.943001 -26.722004 15.023500
						CHANNELS 3 Xrotation Yrotation Zrotation
						End Site
						{
							OFFSET 0 0 0
						}
					}
				}
			}
		}
	}
	JOINT Hips_virtual
	{
		OFFSET 0.000000 0.000000 0.000000
		CHANNELS 3 Xrotation Yrotation Zrotation
		JOINT Hips
		{
			OFFSET -0.000000 -0.000000 -0.000000
			CHANNELS 3 Xrotation Yrotation Zrotation
			JOINT Spine
			{
				OFFSET 0.000000 10.199997 -0.299500
				CHANNELS 3 Xrotation Yrotation Zrotation
				JOINT Spine1
				{
					OFFSET 0.000000 11.900002 -1.516600
					CHANNELS 3 Xrotation Yrotation Zrotation
					JOINT Spine2
					{
						OFFSET 0.000000 13.600006 -2.842500
						CHANNELS 3 Xrotation Yrotation Zrotation
						JOINT Neck_virtual
						{
							OFFSET 0.000000 0.000000 0.000000
							CHANNELS 3 Xrotation Yrotation Zrotation
							JOINT Neck
							{
								OFFSET 0.000000 9.624100 -2.890100
								CHANNELS 3 Xrotation Yrotation Zrotation
								JOINT Head
								{
									OFFSET 0.000000 14.068802 -1.351900
									CHANNELS 3 Xrotation Yrotation Zrotation
									End Site
									{
										OFFSET 0 0 0
									}
								}
							}
						}
						JOINT LeftShoulder_virtual
						{
							OFFSET 0.000000 0.000000 0.000000
							CHANNELS 3 Xrotation Yrotation Zrotation
							JOINT LeftShoulder
							{
								OFFSET 15.263000 10.923401 -0.547700
								CHANNELS 3 Xrotation Yrotation Zrotation
								JOINT LeftArm
								{
									OFFSET 25.438599 -2.830597 -13.032500
									CHANNELS 3 Xrotation Yrotation Zrotation
									JOINT LeftForeArm
									{
										OFFSET 29.960503 0.000000 0.000000
										CHANNELS 3 Xrotation Yrotation Zrotation
										JOINT LeftHand
										{
											OFFSET 27.849251 0.000000 0.000000
											CHANNELS 3 Xrotation Yrotation Zrotation
											End Site
											{
												OFFSET 0 0 0
											}
										}
									}
								}
							}
						}
						JOINT RightShoulder_virtual
						{
							OFFSET 0.000000 0.000000 0.000000
							CHANNELS 3 Xrotation Yrotation Zrotation
							JOINT RightShoulder
							{
								OFFSET -15.263000 10.923401 -0.547700
								CHANNELS 3 Xrotation Yrotation Zrotation
								JOINT RightArm
								{
									OFFSET -25.438599 -2.830597 -13.032500
									CHANNELS 3 Xrotation Yrotation Zrotation
									JOINT RightForeArm
									{
										OFFSET -29.960503 0.000000 0.000000
										CHANNELS 3 Xrotation Yrotation Zrotation
										JOINT RightHand
										{
											OFFSET -27.849251 0.000000 0.000000
											CHANNELS 3 Xrotation Yrotation Zrotation
											End Site
											{
												OFFSET 0 0 0
											}
										}
									}
								}
							}
						}
					}
				}
			}
		}
	}
}
MOTION
Frames: 10
Frame Time: 0.03333333
-5.453992 85.015236 11.092236 0.000000 0.000000 0.000000 -5.200174 -45.559356 0.213734 -33.336323 13.211159 27.321295 51.336873 -8.804429 6.526056 -9.517551 -10.565684 -23.066894 0.000000 0.000000 0.000000 -6.667525 -44.684908 -0.690279 -21.625979 6.024511 -32.345908 78.545796 -14.789345 7.577872 -24.838791 2.019979 14.749278 0.000000 0.000000 0.000000 -6.309750 -43.415121 -0.731840 -0.847855 0.026577 0.028725 7.801045 5.082345 -0.223244 11.123638 -0.746779 -3.660920 0.000000 0.000000 0.000000 8.877034 1.269628 -2.728855 -1.080961 -0.646705 1.363447 0.000000 0.000000 0.000000 13.035734 0.107770 -2.706644 -12.626355 -2.693075 -3.823411 -45.699262 7.562532 -53.574880 -147.611344 -72.935888 -135.830852 0.000000 0.000000 0.000000 6.182350 1.667350 -4.293352 8.207058 -1.330171 3.368039 -65.795902 30.754672 77.642134 142.908007 85.402363 -129.202631 0.000000 0.000000 0.000000 
-5.211426 84.442757 10.585169 0.000000 0.000000 0.000000 -5.100075 -46.018372 0.421232 -35.784823 13.535892 27.675899 55.401980 -8.749991 6.677422 -7.347896 -10.880524 -22.259598 0.000000 0.000000 0.000000 -6.628623 -45.218089 -0.377018 -20.803727 6.756336 -32.447572 78.075182 -15.157257 7.195434 -28.623832 1.536361 13.453126 0.000000 0.000000 0.000000 -6.156849 -44.260599 -0.414964 -0.824485 -0.034409 0.099706 8.401414 4.976800 -0.508711 10.992459 -0.946340 -3.471686 0.000000 0.000000 0.000000 8.931755 1.166475 -2.267821 -0.845621 -0.653181 1.406966 0.000000 0.000000 0.000000 12.813283 -0.158652 -2.705711 -12.347242 -3.192500 -4.298401 -46.491383 5.446039 -52.856409 -139.205047 -74.931547 -127.201850 0.000000 0.000000 0.000000 5.958797 1.501460 -3.963504 8.357027 0.008931 3.090532 -67.659588 32.842869 78.269392 138.160957 86.499995 -124.138429 0.000000 0.000000 0.000000 
-4.648848 83.458511 10.312708 0.000000 0.000000 0.000000 -5.131750 -46.641910 0.853403 -40.189243 12.870684 27.817721 62.280199 -9.281718 7.313394 -8.218060 -11.406119 -22.314126 0.000000 0.000000 0.000000 -6.437991 -45.997462 0.250049 -20.562170 8.330523 -34.011917 78.509773 -14.626572 6.394004 -32.662463 1.500718 13.406961 0.000000 0.000000 0.000000 -5.895272 -45.622624 0.346824 -0.801432 -0.035009 0.150715 10.127755 5.547054 -1.053315 10.242912 -0.900470 -2.968568 0.000000 0.000000 0.000000 8.349109 1.144899 -1.451466 -0.748300 -0.542183 1.150485 0.000000 0.000000 0.000000 12.140613 -0.193703 -2.310816 -12.047813 -2.842934 -5.487850 -45.287815 2.910882 -52.030974 -126.977725 -76.174518 -114.827665 0.000000 0.000000 0.000000 5.441948 1.430752 -3.356944 8.446307 1.758922 2.133293 -68.205784 34.473119 78.606516 146.334289 87.186306 -132.214922 0.000000 0.000000 0.000000 
-3.894259 82.105766 10.606863 0.000000 0.000000 0.000000 -5.207822 -47.755682 1.444863 -45.330647 11.023671 27.570719 70.456598 -10.476707 8.680755 -11.589867 -12.699203 -24.058684 0.000000 0.000000 0.000000 -6.172475 -47.179187 0.967837 -21.664716 10.906184 -36.860526 80.048362 -12.542779 5.141454 -34.170337 2.469309 15.874526 0.000000 0.000000 0.000000 -5.641571 -47.397374 1.264516 -0.787505 0.030398 0.166087 12.695968 6.686881 -1.785109 8.910883 -0.563812 -2.264367 0.000000 0.000000 0.000000 7.319031 1.276487 -0.542402 -0.766894 -0.315957 0.615024 0.000000 0.000000 0.000000 11.021179 0.054874 -1.635944 -11.685828 -1.495139 -6.942114 -41.830049 1.453033 -50.502388 -122.456604 -75.511033 -110.463891 0.000000 0.000000 0.000000 4.672862 1.533887 -2.518000 8.345504 3.170942 0.724856 -68.183477 35.334966 79.027112 170.893491 87.499074 -157.025243 0.000000 0.000000 0.000000 
-3.087694 80.348549 11.694235 0.000000 0.000000 0.000000 -5.205791 -49.628014 2.102704 -50.642745 8.461898 27.592265 78.486414 -11.860192 10.346185 -13.885343 -14.733290 -27.282132 0.000000 0.000000 0.000000 -5.911943 -48.804389 1.578075 -23.930333 14.002615 -40.773323 81.747392 -9.255104 3.740875 -33.400168 4.399205 20.117456 0.000000 0.000000 0.000000 -5.241982 -49.513482 2.218941 -0.820711 0.099604 0.109203 15.529984 7.951258 -2.604981 7.281247 -0.002898 -1.481893 0.000000 0.000000 0.000000 6.137249 1.609141 0.262924 -0.865081 0.011088 -0.077082 0.000000 0.000000 0.000000 9.700721 0.567684 -0.847427 -11.191815 0.379202 -8.403430 -36.491904 2.285449 -48.123812 -129.934213 -72.751739 -118.462282 0.000000 0.000000 0.000000 3.827508 1.833314 -1.598501 8.063257 3.825670 -0.813753 -68.006787 35.420377 79.700173 -157.991346 86.900606 171.361715 0.000000 0.000000 0.000000 
-2.330991 78.331879 13.520664 0.000000 0.000000 0.000000 -4.988891 -51.912095 2.720837 -55.569418 5.451701 28.402348 85.086241 -12.767694 11.902983 -13.396619 -16.866998 -30.579758 0.000000 0.000000 0.000000 -5.547375 -50.980081 2.018904 -26.351018 16.687578 -45.179307 82.266043 -5.707771 2.637372 -32.708065 6.349597 24.186478 0.000000 0.000000 0.000000 -4.652534 -51.760075 3.079054 -0.854877 0.154667 -0.000809 17.893882 8.884932 -3.409470 5.638062 0.678263 -0.728730 0.000000 0.000000 0.000000 5.055818 2.079519 0.849366 -0.974743 0.420083 -0.771569 0.000000 0.000000 0.000000 8.507972 1.249032 -0.111658 -10.487591 2.282203 -9.623116 -31.227447 5.130501 -45.257363 -140.879974 -67.673938 -130.148654 0.000000 0.000000 0.000000 3.019750 2.288480 -0.749774 7.696535 3.821588 -2.116134 -67.888467 35.887853 80.729530 -138.057876 85.329697 150.825713 0.000000 0.000000 0.000000 
-1.537399 76.209579 16.099697 0.000000 0.000000 0.000000 -4.530147 -54.506136 3.205162 -58.832162 1.997278 30.021372 88.636656 -12.904176 13.418154 -11.135736 -18.318499 -32.842978 0.000000 0.000000 0.000000 -4.919572 -53.625687 2.361164 -27.719158 18.405931 -49.793530 80.754802 -2.557734 1.962986 -32.961291 7.803109 27.242051 0.000000 0.000000 0.000000 -3.837131 -54.054534 3.820312 -0.875083 0.203525 -0.107429 19.311882 9.161542 -4.151243 4.117390 1.324800 -0.086380 0.000000 0.000000 0.000000 4.206540 2.601220 1.209203 -1.013207 0.905590 -1.311178 0.000000 0.000000 0.000000 7.490269 1.902809 0.531652 -9.588594 3.748980 -10.080440 -28.003166 8.973123 -42.338314 -147.789762 -61.874984 -137.874403 0.000000 0.000000 0.000000 2.322379 2.782044 -0.030989 7.347947 3.460379 -2.854372 -67.599284 37.919721 82.098689 -130.985215 82.845195 143.364209 0.000000 0.000000 0.000000 
-0.986564 74.063362 19.414082 0.000000 0.000000 0.000000 -3.714229 -57.012791 3.575868 -59.088404 -1.222685 32.647683 87.295794 -12.756194 14.754037 -9.254030 -18.260958 -33.922435 0.000000 0.000000 0.000000 -4.078365 -56.194476 2.690454 -27.674665 19.112160 -54.445244 77.189143 0.018506 1.433649 -32.783057 8.958410 29.276865 0.000000 0.000000 0.000000 -2.856002 -55.965286 4.419978 -0.882060 0.257850 -0.171838 19.466010 8.442125 -4.872092 2.958083 1.746492 0.425936 0.000000 0.000000 0.000000 3.686704 2.907787 1.451852 -0.951002 1.445773 -1.604780 0.000000 0.000000 0.000000 6.721363 2.310578 1.062413 -8.491861 4.529957 -9.642695 -28.516675 11.857690 -39.569929 -147.858173 -59.038017 -138.488014 0.000000 0.000000 0.000000 1.785325 3.085066 0.526875 7.158987 3.228141 -3.007770 -66.209511 42.337057 82.823489 -131.110645 79.700863 143.408455 0.000000 0.000000 0.000000 
-0.637215 71.987488 23.277416 0.000000 0.000000 0.000000 -2.600742 -58.680286 3.857205 -56.027605 -3.256214 36.129102 79.570078 -12.689866 15.521458 -10.386835 -16.161969 -34.077941 0.000000 0.000000 0.000000 -3.019607 -58.005142 3.069943 -26.442318 18.705390 -58.276383 72.110371 1.848205 0.649799 -31.475735 9.857881 30.056671 0.000000 0.000000 0.000000 -1.957609 -57.156731 4.699965 -0.864069 0.301482 -0.138158 18.308257 6.612593 -5.554397 2.250231 1.749443 0.766579 0.000000 0.000000 0.000000 3.335115 2.802887 1.659244 -0.781864 1.974908 -1.621218 0.000000 0.000000 0.000000 6.257432 2.283799 1.513695 -7.191572 4.745433 -8.366738 -33.455148 12.159390 -36.725965 -138.433031 -61.329525 -129.237971 0.000000 0.000000 0.000000 1.492260 2.996455 0.916619 7.206903 3.267684 -3.055296 -62.715521 49.075623 81.238632 -132.694374 76.518206 145.357709 0.000000 0.000000 0.000000 
-0.340796 70.217445 27.811117 0.000000 0.000000 0.000000 -1.574767 -59.097242 3.787939 -51.126415 -3.785268 39.717755 65.677979 -12.639247 15.012862 -13.062276 -12.854507 -32.926880 0.000000 0.000000 0.000000 -2.036962 -58.449638 3.219573 -24.048683 16.657054 -60.896157 65.886580 2.704584 -0.252698 -29.293189 10.266786 29.139407 0.000000 0.000000 0.000000 -1.468599 -57.251250 4.382682 -0.848914 0.300386 -0.075264 16.253048 3.674197 -6.172646 1.941624 1.263453 0.975480 0.000000 0.000000 0.000000 2.936042 2.272188 1.947997 -0.476041 2.443579 -1.373437 0.000000 0.000000 0.000000 6.008224 1.766511 1.981581 -5.811273 4.664846 -6.275335 -41.467987 9.796793 -34.057106 -108.779013 -65.891982 -99.434133 0.000000 0.000000 0.000000 1.490392 2.439830 1.169535 7.439451 3.303758 -3.435199 -53.302089 56.194155 73.400949 -135.175700 73.684484 148.570794 0.000000 0.000000 0.000000 
